<svg xmlns="http://www.w3.org/2000/svg" xmlns:xlink="http://www.w3.org/1999/xlink" width="500" zoomAndPan="magnify" viewBox="0 0 375 374.999991" height="500" preserveAspectRatio="xMidYMid meet" version="1.0"><defs><g/><clipPath id="dec0e00338"><path d="M 171.628906 95.40625 L 175.511719 95.40625 L 175.511719 216.796875 L 171.628906 216.796875 Z M 171.628906 95.40625 " clip-rule="nonzero"/></clipPath><clipPath id="477d7dbcaf"><path d="M 99.417969 96.882812 L 168.417969 96.882812 L 168.417969 218.238281 L 99.417969 218.238281 Z M 99.417969 96.882812 " clip-rule="nonzero"/></clipPath><clipPath id="6414b25daf"><path d="M 176.238281 99.628906 L 249 99.628906 L 249 215.878906 L 176.238281 215.878906 Z M 176.238281 99.628906 " clip-rule="nonzero"/></clipPath></defs><rect x="-37.5" width="450" fill="#ffffff" y="-37.499999" height="449.999989" fill-opacity="1"/><rect x="-37.5" width="450" fill="#000000" y="-37.499999" height="449.999989" fill-opacity="1"/><g clip-path="url(#dec0e00338)"><path fill="#ffffff" d="M 171.628906 95.40625 L 175.511719 95.40625 L 175.511719 216.796875 L 171.628906 216.796875 Z M 171.628906 95.40625 " fill-opacity="1" fill-rule="nonzero"/></g><g clip-path="url(#477d7dbcaf)"><path fill="#ffffff" d="M 207.308594 97.472656 C 206.8125 96.605469 205.890625 96.066406 204.894531 96.066406 L 185.503906 96.066406 C 184.53125 96.066406 183.625 96.578125 183.125 97.414062 L 153.542969 146.761719 L 123.960938 97.414062 C 123.460938 96.578125 122.554688 96.066406 121.582031 96.066406 L 102.195312 96.066406 C 101.195312 96.066406 100.273438 96.605469 99.78125 97.472656 C 99.285156 98.34375 99.300781 99.410156 99.816406 100.269531 L 141.054688 169.109375 L 141.054688 215.417969 C 141.054688 216.949219 142.296875 218.195312 143.828125 218.195312 L 163.257812 218.195312 C 164.789062 218.195312 166.035156 216.949219 166.035156 215.417969 L 166.035156 169.109375 L 207.269531 100.269531 C 207.789062 99.410156 207.800781 98.34375 207.308594 97.472656 Z M 207.308594 97.472656 " fill-opacity="1" fill-rule="nonzero"/></g><g clip-path="url(#6414b25daf)"><path fill="#ffde59" d="M 237.722656 209.683594 C 232.183594 213.078125 226.035156 214.761719 219.863281 215.527344 L 219.863281 214.300781 C 226.167969 210.449219 241.730469 198.609375 230.019531 180.289062 C 222.46875 168.445312 207.691406 161.660156 195.699219 155.050781 C 184.292969 148.570312 176.304688 136.421875 176.765625 123.640625 C 177.070312 113.945312 185.082031 105.167969 194.320312 101.773438 C 196.945312 100.855469 199.550781 100.242188 202.175781 99.78125 L 202.175781 100.703125 C 196.3125 103.175781 187.226562 109.632812 191.691406 124.867188 C 194.320312 133.949219 202.308594 139.640625 210.320312 144.105469 C 219.710938 149.183594 228.792969 153.957031 236.476562 161.355469 C 252.804688 176.894531 251.25 201.671875 237.722656 209.683594 Z M 182.609375 180.746094 C 181.382812 200.140625 190.773438 208.765625 201.234375 213.535156 L 201.234375 214.914062 C 187.992188 212.921875 177.988281 208.304688 177.988281 208.304688 L 180.464844 180.746094 Z M 239.867188 133.949219 C 240.023438 116.089844 230.632812 105.015625 220.78125 100.550781 L 220.78125 99.628906 C 234.023438 101.46875 244.332031 106.546875 244.332031 106.546875 L 242.035156 133.949219 Z M 239.867188 133.949219 " fill-opacity="1" fill-rule="nonzero"/></g><g fill="#ffffff" fill-opacity="1"><g transform="translate(133.105774, 273.567488)"><g><path d="M 6.796875 0 L 4.390625 0 L 4.390625 -4.765625 L -0.046875 -12.171875 L 2.625 -12.171875 L 5.578125 -7 L 8.546875 -12.171875 L 11.21875 -12.171875 L 6.796875 -4.765625 Z M 6.796875 0 "/></g></g></g><g fill="#ffffff" fill-opacity="1"><g transform="translate(144.269329, 273.567488)"><g><path d="M 5.1875 0.171875 C 4.289062 0.171875 3.492188 -0.0195312 2.796875 -0.40625 C 2.109375 -0.800781 1.570312 -1.351562 1.1875 -2.0625 C 0.800781 -2.769531 0.609375 -3.59375 0.609375 -4.53125 C 0.609375 -5.4375 0.800781 -6.234375 1.1875 -6.921875 C 1.570312 -7.609375 2.109375 -8.148438 2.796875 -8.546875 C 3.484375 -8.941406 4.28125 -9.140625 5.1875 -9.140625 C 6.09375 -9.140625 6.890625 -8.941406 7.578125 -8.546875 C 8.265625 -8.148438 8.800781 -7.609375 9.1875 -6.921875 C 9.582031 -6.234375 9.78125 -5.4375 9.78125 -4.53125 C 9.78125 -3.601562 9.585938 -2.785156 9.203125 -2.078125 C 8.816406 -1.367188 8.28125 -0.816406 7.59375 -0.421875 C 6.90625 -0.0234375 6.101562 0.171875 5.1875 0.171875 Z M 5.1875 -1.671875 C 5.882812 -1.671875 6.453125 -1.9375 6.890625 -2.46875 C 7.328125 -3 7.546875 -3.6875 7.546875 -4.53125 C 7.546875 -5.0625 7.445312 -5.535156 7.25 -5.953125 C 7.050781 -6.367188 6.773438 -6.695312 6.421875 -6.9375 C 6.078125 -7.175781 5.664062 -7.296875 5.1875 -7.296875 C 4.726562 -7.296875 4.316406 -7.175781 3.953125 -6.9375 C 3.585938 -6.707031 3.304688 -6.382812 3.109375 -5.96875 C 2.910156 -5.550781 2.8125 -5.070312 2.8125 -4.53125 C 2.8125 -3.675781 3.03125 -2.984375 3.46875 -2.453125 C 3.914062 -1.929688 4.488281 -1.671875 5.1875 -1.671875 Z M 5.1875 -1.671875 "/></g></g></g><g fill="#ffffff" fill-opacity="1"><g transform="translate(154.667381, 273.567488)"><g><path d="M 5.09375 3.390625 C 4.488281 3.390625 3.890625 3.304688 3.296875 3.140625 C 2.703125 2.984375 2.191406 2.691406 1.765625 2.265625 C 1.335938 1.835938 1.0625 1.242188 0.9375 0.484375 L 3.109375 0.484375 C 3.242188 0.910156 3.472656 1.222656 3.796875 1.421875 C 4.128906 1.617188 4.554688 1.71875 5.078125 1.71875 C 5.804688 1.71875 6.332031 1.550781 6.65625 1.21875 C 6.976562 0.882812 7.140625 0.457031 7.140625 -0.0625 L 7.140625 -1.328125 C 6.785156 -0.816406 6.40625 -0.46875 6 -0.28125 C 5.59375 -0.101562 5.125 -0.015625 4.59375 -0.015625 C 3.820312 -0.015625 3.140625 -0.210938 2.546875 -0.609375 C 1.953125 -1.003906 1.488281 -1.539062 1.15625 -2.21875 C 0.832031 -2.894531 0.671875 -3.671875 0.671875 -4.546875 C 0.671875 -5.441406 0.832031 -6.234375 1.15625 -6.921875 C 1.488281 -7.609375 1.953125 -8.148438 2.546875 -8.546875 C 3.140625 -8.941406 3.820312 -9.140625 4.59375 -9.140625 C 5.125 -9.140625 5.59375 -9.039062 6 -8.84375 C 6.40625 -8.65625 6.785156 -8.3125 7.140625 -7.8125 L 7.140625 -8.953125 L 9.296875 -8.953125 L 9.296875 -0.578125 C 9.296875 0.441406 9.109375 1.242188 8.734375 1.828125 C 8.367188 2.410156 7.863281 2.816406 7.21875 3.046875 C 6.582031 3.273438 5.875 3.390625 5.09375 3.390625 Z M 5.109375 -1.859375 C 5.566406 -1.859375 5.96875 -1.972656 6.3125 -2.203125 C 6.65625 -2.441406 6.925781 -2.765625 7.125 -3.171875 C 7.320312 -3.585938 7.421875 -4.054688 7.421875 -4.578125 C 7.421875 -5.097656 7.320312 -5.5625 7.125 -5.96875 C 6.925781 -6.382812 6.65625 -6.707031 6.3125 -6.9375 C 5.96875 -7.175781 5.566406 -7.296875 5.109375 -7.296875 C 4.648438 -7.296875 4.25 -7.175781 3.90625 -6.9375 C 3.5625 -6.695312 3.296875 -6.367188 3.109375 -5.953125 C 2.929688 -5.546875 2.84375 -5.085938 2.84375 -4.578125 C 2.84375 -4.066406 2.929688 -3.601562 3.109375 -3.1875 C 3.296875 -2.78125 3.5625 -2.457031 3.90625 -2.21875 C 4.25 -1.976562 4.648438 -1.859375 5.109375 -1.859375 Z M 5.109375 -1.859375 "/></g></g></g><g fill="#ffffff" fill-opacity="1"><g transform="translate(164.937854, 273.567488)"><g><path d="M 5.171875 0.171875 C 4.253906 0.171875 3.453125 -0.0234375 2.765625 -0.421875 C 2.078125 -0.816406 1.546875 -1.359375 1.171875 -2.046875 C 0.796875 -2.742188 0.609375 -3.535156 0.609375 -4.421875 C 0.609375 -5.003906 0.695312 -5.578125 0.875 -6.140625 C 1.0625 -6.703125 1.335938 -7.207031 1.703125 -7.65625 C 2.078125 -8.113281 2.546875 -8.472656 3.109375 -8.734375 C 3.671875 -9.003906 4.335938 -9.140625 5.109375 -9.140625 C 5.679688 -9.140625 6.234375 -9.046875 6.765625 -8.859375 C 7.304688 -8.679688 7.789062 -8.40625 8.21875 -8.03125 C 8.644531 -7.65625 8.984375 -7.175781 9.234375 -6.59375 C 9.484375 -6.007812 9.609375 -5.3125 9.609375 -4.5 L 9.609375 -4.03125 L 2.84375 -4.03125 C 2.863281 -3.84375 2.90625 -3.65625 2.96875 -3.46875 C 3.03125 -3.28125 3.097656 -3.117188 3.171875 -2.984375 C 3.390625 -2.566406 3.675781 -2.242188 4.03125 -2.015625 C 4.382812 -1.785156 4.789062 -1.671875 5.25 -1.671875 C 5.757812 -1.671875 6.1875 -1.800781 6.53125 -2.0625 C 6.875 -2.332031 7.117188 -2.648438 7.265625 -3.015625 L 9.453125 -3.015625 C 9.285156 -2.441406 9.015625 -1.910156 8.640625 -1.421875 C 8.273438 -0.941406 7.800781 -0.554688 7.21875 -0.265625 C 6.644531 0.0234375 5.960938 0.171875 5.171875 0.171875 Z M 2.9375 -5.640625 L 7.40625 -5.640625 C 7.394531 -5.765625 7.363281 -5.898438 7.3125 -6.046875 C 7.269531 -6.191406 7.1875 -6.335938 7.0625 -6.484375 C 6.863281 -6.796875 6.597656 -7.03125 6.265625 -7.1875 C 5.929688 -7.351562 5.566406 -7.4375 5.171875 -7.4375 C 4.773438 -7.4375 4.414062 -7.351562 4.09375 -7.1875 C 3.769531 -7.03125 3.5 -6.796875 3.28125 -6.484375 C 3.164062 -6.335938 3.082031 -6.191406 3.03125 -6.046875 C 2.988281 -5.898438 2.957031 -5.765625 2.9375 -5.640625 Z M 2.9375 -5.640625 "/></g></g></g><g fill="#ffffff" fill-opacity="1"><g transform="translate(175.144534, 273.567488)"><g><path d="M 3.125 0 L 0.96875 0 L 0.96875 -8.953125 L 3.125 -8.953125 L 3.125 -7.8125 C 3.488281 -8.3125 3.863281 -8.65625 4.25 -8.84375 C 4.644531 -9.039062 5.082031 -9.140625 5.5625 -9.140625 C 6.382812 -9.140625 7.003906 -8.992188 7.421875 -8.703125 C 7.847656 -8.410156 8.160156 -8.054688 8.359375 -7.640625 C 8.535156 -7.242188 8.640625 -6.84375 8.671875 -6.4375 C 8.703125 -6.03125 8.71875 -5.601562 8.71875 -5.15625 L 8.71875 0 L 6.59375 0 L 6.59375 -5.1875 C 6.59375 -5.644531 6.550781 -6.015625 6.46875 -6.296875 C 6.394531 -6.578125 6.285156 -6.800781 6.140625 -6.96875 C 5.890625 -7.238281 5.515625 -7.375 5.015625 -7.375 C 4.398438 -7.375 3.945312 -7.191406 3.65625 -6.828125 C 3.46875 -6.617188 3.332031 -6.335938 3.25 -5.984375 C 3.164062 -5.628906 3.125 -5.15625 3.125 -4.5625 Z M 3.125 0 "/></g></g></g><g fill="#ffde59" fill-opacity="1"><g transform="translate(184.796089, 273.567488)"><g/></g></g><g fill="#ffde59" fill-opacity="1"><g transform="translate(189.070133, 273.567488)"><g><path d="M 5.921875 0.21875 C 5.335938 0.21875 4.742188 0.144531 4.140625 0 C 3.535156 -0.132812 2.976562 -0.363281 2.46875 -0.6875 C 1.957031 -1.007812 1.53125 -1.4375 1.1875 -1.96875 C 0.84375 -2.507812 0.632812 -3.171875 0.5625 -3.953125 L 2.9375 -3.953125 C 3.070312 -3.378906 3.289062 -2.929688 3.59375 -2.609375 C 3.90625 -2.285156 4.265625 -2.054688 4.671875 -1.921875 C 5.085938 -1.796875 5.507812 -1.734375 5.9375 -1.734375 C 6.5625 -1.734375 7.085938 -1.863281 7.515625 -2.125 C 7.941406 -2.394531 8.15625 -2.820312 8.15625 -3.40625 C 8.15625 -3.832031 8.015625 -4.160156 7.734375 -4.390625 C 7.460938 -4.628906 7.101562 -4.816406 6.65625 -4.953125 C 6.21875 -5.085938 5.738281 -5.207031 5.21875 -5.3125 C 4.71875 -5.425781 4.21875 -5.550781 3.71875 -5.6875 C 3.21875 -5.832031 2.753906 -6.023438 2.328125 -6.265625 C 1.910156 -6.515625 1.578125 -6.84375 1.328125 -7.25 C 1.078125 -7.65625 0.953125 -8.179688 0.953125 -8.828125 C 0.953125 -9.609375 1.140625 -10.257812 1.515625 -10.78125 C 1.898438 -11.3125 2.414062 -11.710938 3.0625 -11.984375 C 3.707031 -12.253906 4.441406 -12.390625 5.265625 -12.390625 C 6.046875 -12.390625 6.78125 -12.25 7.46875 -11.96875 C 8.164062 -11.695312 8.753906 -11.28125 9.234375 -10.71875 C 9.710938 -10.15625 10.015625 -9.429688 10.140625 -8.546875 L 7.796875 -8.546875 C 7.648438 -9.203125 7.335938 -9.679688 6.859375 -9.984375 C 6.390625 -10.285156 5.84375 -10.4375 5.21875 -10.4375 C 4.644531 -10.4375 4.171875 -10.316406 3.796875 -10.078125 C 3.421875 -9.835938 3.234375 -9.484375 3.234375 -9.015625 C 3.234375 -8.640625 3.363281 -8.34375 3.625 -8.125 C 3.882812 -7.914062 4.226562 -7.75 4.65625 -7.625 C 5.082031 -7.507812 5.539062 -7.394531 6.03125 -7.28125 C 6.539062 -7.164062 7.050781 -7.03125 7.5625 -6.875 C 8.082031 -6.726562 8.5625 -6.523438 9 -6.265625 C 9.445312 -6.003906 9.800781 -5.65625 10.0625 -5.21875 C 10.332031 -4.78125 10.46875 -4.21875 10.46875 -3.53125 C 10.46875 -2.375 10.066406 -1.457031 9.265625 -0.78125 C 8.472656 -0.113281 7.359375 0.21875 5.921875 0.21875 Z M 5.921875 0.21875 "/></g></g></g><g fill="#ffde59" fill-opacity="1"><g transform="translate(200.169895, 273.567488)"><g><path d="M 3.140625 0 L 0.984375 0 L 0.984375 -12.171875 L 3.140625 -12.171875 L 3.140625 -7.8125 C 3.503906 -8.3125 3.878906 -8.65625 4.265625 -8.84375 C 4.648438 -9.039062 5.082031 -9.140625 5.5625 -9.140625 C 6.382812 -9.140625 7.007812 -8.992188 7.4375 -8.703125 C 7.863281 -8.410156 8.171875 -8.054688 8.359375 -7.640625 C 8.546875 -7.242188 8.65625 -6.84375 8.6875 -6.4375 C 8.726562 -6.03125 8.75 -5.601562 8.75 -5.15625 L 8.75 0 L 6.59375 0 L 6.59375 -5.1875 C 6.59375 -6.0625 6.445312 -6.65625 6.15625 -6.96875 C 5.90625 -7.238281 5.53125 -7.375 5.03125 -7.375 C 4.40625 -7.375 3.945312 -7.191406 3.65625 -6.828125 C 3.46875 -6.617188 3.332031 -6.335938 3.25 -5.984375 C 3.175781 -5.628906 3.140625 -5.15625 3.140625 -4.5625 Z M 3.140625 0 "/></g></g></g><g fill="#ffde59" fill-opacity="1"><g transform="translate(209.818396, 273.567488)"><g><path d="M 3.125 0 L 0.96875 0 L 0.96875 -8.953125 L 3.125 -8.953125 L 3.125 -7.875 C 3.46875 -8.34375 3.847656 -8.671875 4.265625 -8.859375 C 4.679688 -9.046875 5.148438 -9.140625 5.671875 -9.140625 L 5.9375 -9.140625 L 5.9375 -7.0625 L 5.4375 -7.0625 C 5.070312 -7.0625 4.757812 -7.015625 4.5 -6.921875 C 4.238281 -6.828125 4.019531 -6.695312 3.84375 -6.53125 C 3.613281 -6.289062 3.4375 -5.984375 3.3125 -5.609375 C 3.1875 -5.234375 3.125 -4.742188 3.125 -4.140625 Z M 3.125 0 "/></g></g></g><g fill="#ffde59" fill-opacity="1"><g transform="translate(216.054038, 273.567488)"><g><path d="M 5.171875 0.171875 C 4.253906 0.171875 3.453125 -0.0234375 2.765625 -0.421875 C 2.078125 -0.816406 1.546875 -1.359375 1.171875 -2.046875 C 0.796875 -2.742188 0.609375 -3.535156 0.609375 -4.421875 C 0.609375 -5.003906 0.695312 -5.578125 0.875 -6.140625 C 1.0625 -6.703125 1.335938 -7.207031 1.703125 -7.65625 C 2.078125 -8.113281 2.546875 -8.472656 3.109375 -8.734375 C 3.671875 -9.003906 4.335938 -9.140625 5.109375 -9.140625 C 5.679688 -9.140625 6.234375 -9.046875 6.765625 -8.859375 C 7.304688 -8.679688 7.789062 -8.40625 8.21875 -8.03125 C 8.644531 -7.65625 8.984375 -7.175781 9.234375 -6.59375 C 9.484375 -6.007812 9.609375 -5.3125 9.609375 -4.5 L 9.609375 -4.03125 L 2.84375 -4.03125 C 2.863281 -3.84375 2.90625 -3.65625 2.96875 -3.46875 C 3.03125 -3.28125 3.097656 -3.117188 3.171875 -2.984375 C 3.390625 -2.566406 3.675781 -2.242188 4.03125 -2.015625 C 4.382812 -1.785156 4.789062 -1.671875 5.25 -1.671875 C 5.757812 -1.671875 6.1875 -1.800781 6.53125 -2.0625 C 6.875 -2.332031 7.117188 -2.648438 7.265625 -3.015625 L 9.453125 -3.015625 C 9.285156 -2.441406 9.015625 -1.910156 8.640625 -1.421875 C 8.273438 -0.941406 7.800781 -0.554688 7.21875 -0.265625 C 6.644531 0.0234375 5.960938 0.171875 5.171875 0.171875 Z M 2.9375 -5.640625 L 7.40625 -5.640625 C 7.394531 -5.765625 7.363281 -5.898438 7.3125 -6.046875 C 7.269531 -6.191406 7.1875 -6.335938 7.0625 -6.484375 C 6.863281 -6.796875 6.597656 -7.03125 6.265625 -7.1875 C 5.929688 -7.351562 5.566406 -7.4375 5.171875 -7.4375 C 4.773438 -7.4375 4.414062 -7.351562 4.09375 -7.1875 C 3.769531 -7.03125 3.5 -6.796875 3.28125 -6.484375 C 3.164062 -6.335938 3.082031 -6.191406 3.03125 -6.046875 C 2.988281 -5.898438 2.957031 -5.765625 2.9375 -5.640625 Z M 2.9375 -5.640625 "/></g></g></g><g fill="#ffde59" fill-opacity="1"><g transform="translate(226.260718, 273.567488)"><g><path d="M 4.84375 0.171875 C 4.164062 0.171875 3.519531 0.0625 2.90625 -0.15625 C 2.289062 -0.375 1.769531 -0.71875 1.34375 -1.1875 C 0.925781 -1.65625 0.664062 -2.265625 0.5625 -3.015625 L 2.6875 -3.015625 C 2.820312 -2.523438 3.070312 -2.148438 3.4375 -1.890625 C 3.8125 -1.640625 4.273438 -1.515625 4.828125 -1.515625 C 5.285156 -1.515625 5.660156 -1.601562 5.953125 -1.78125 C 6.253906 -1.96875 6.40625 -2.222656 6.40625 -2.546875 C 6.40625 -2.816406 6.304688 -3.023438 6.109375 -3.171875 C 5.921875 -3.328125 5.664062 -3.445312 5.34375 -3.53125 C 5.019531 -3.625 4.671875 -3.707031 4.296875 -3.78125 C 3.910156 -3.851562 3.515625 -3.941406 3.109375 -4.046875 C 2.710938 -4.160156 2.347656 -4.304688 2.015625 -4.484375 C 1.691406 -4.671875 1.425781 -4.921875 1.21875 -5.234375 C 1.019531 -5.554688 0.921875 -5.96875 0.921875 -6.46875 C 0.921875 -7.09375 1.078125 -7.597656 1.390625 -7.984375 C 1.710938 -8.378906 2.140625 -8.671875 2.671875 -8.859375 C 3.203125 -9.046875 3.773438 -9.140625 4.390625 -9.140625 C 5.429688 -9.140625 6.300781 -8.875 7 -8.34375 C 7.707031 -7.820312 8.140625 -7.070312 8.296875 -6.09375 L 6.265625 -6.09375 C 6.140625 -6.582031 5.898438 -6.929688 5.546875 -7.140625 C 5.203125 -7.347656 4.8125 -7.453125 4.375 -7.453125 C 3.945312 -7.453125 3.609375 -7.367188 3.359375 -7.203125 C 3.109375 -7.035156 2.984375 -6.816406 2.984375 -6.546875 C 2.984375 -6.296875 3.078125 -6.101562 3.265625 -5.96875 C 3.460938 -5.832031 3.71875 -5.722656 4.03125 -5.640625 C 4.34375 -5.566406 4.679688 -5.492188 5.046875 -5.421875 C 5.429688 -5.347656 5.828125 -5.257812 6.234375 -5.15625 C 6.648438 -5.0625 7.03125 -4.921875 7.375 -4.734375 C 7.71875 -4.546875 7.992188 -4.289062 8.203125 -3.96875 C 8.421875 -3.644531 8.53125 -3.226562 8.53125 -2.71875 C 8.53125 -1.84375 8.207031 -1.140625 7.5625 -0.609375 C 6.914062 -0.0859375 6.007812 0.171875 4.84375 0.171875 Z M 4.84375 0.171875 "/></g></g></g><g fill="#ffde59" fill-opacity="1"><g transform="translate(235.446731, 273.567488)"><g><path d="M 5.546875 0 L 3.78125 0 C 3.125 0 2.609375 -0.148438 2.234375 -0.453125 C 1.867188 -0.765625 1.6875 -1.269531 1.6875 -1.96875 L 1.6875 -7.234375 L 0.359375 -7.234375 L 0.359375 -8.953125 L 1.6875 -8.953125 L 1.6875 -12.171875 L 3.84375 -12.171875 L 3.84375 -8.953125 L 5.5625 -8.953125 L 5.5625 -7.234375 L 3.84375 -7.234375 L 3.84375 -2.609375 C 3.84375 -2.378906 3.878906 -2.179688 3.953125 -2.015625 C 4.035156 -1.859375 4.242188 -1.78125 4.578125 -1.78125 L 5.546875 -1.78125 Z M 5.546875 0 "/></g></g></g><g fill="#ffde59" fill-opacity="1"><g transform="translate(241.554794, 273.567488)"><g><path d="M 3.140625 0 L 0.984375 0 L 0.984375 -12.171875 L 3.140625 -12.171875 L 3.140625 -7.8125 C 3.503906 -8.3125 3.878906 -8.65625 4.265625 -8.84375 C 4.648438 -9.039062 5.082031 -9.140625 5.5625 -9.140625 C 6.382812 -9.140625 7.007812 -8.992188 7.4375 -8.703125 C 7.863281 -8.410156 8.171875 -8.054688 8.359375 -7.640625 C 8.546875 -7.242188 8.65625 -6.84375 8.6875 -6.4375 C 8.726562 -6.03125 8.75 -5.601562 8.75 -5.15625 L 8.75 0 L 6.59375 0 L 6.59375 -5.1875 C 6.59375 -6.0625 6.445312 -6.65625 6.15625 -6.96875 C 5.90625 -7.238281 5.53125 -7.375 5.03125 -7.375 C 4.40625 -7.375 3.945312 -7.191406 3.65625 -6.828125 C 3.46875 -6.617188 3.332031 -6.335938 3.25 -5.984375 C 3.175781 -5.628906 3.140625 -5.15625 3.140625 -4.5625 Z M 3.140625 0 "/></g></g></g><g fill="#ffde59" fill-opacity="1"><g transform="translate(251.203295, 273.567488)"><g><path d="M 3.5625 0.171875 C 2.71875 0.171875 2.015625 -0.0507812 1.453125 -0.5 C 0.898438 -0.957031 0.625 -1.609375 0.625 -2.453125 C 0.625 -2.929688 0.71875 -3.335938 0.90625 -3.671875 C 1.09375 -4.015625 1.335938 -4.289062 1.640625 -4.5 C 1.929688 -4.695312 2.257812 -4.851562 2.625 -4.96875 C 2.988281 -5.09375 3.359375 -5.191406 3.734375 -5.265625 L 6.390625 -5.765625 C 6.367188 -6.316406 6.226562 -6.734375 5.96875 -7.015625 C 5.695312 -7.304688 5.296875 -7.453125 4.765625 -7.453125 C 4.359375 -7.453125 4 -7.332031 3.6875 -7.09375 C 3.375 -6.851562 3.175781 -6.519531 3.09375 -6.09375 L 0.953125 -6.09375 C 1.054688 -6.789062 1.300781 -7.363281 1.6875 -7.8125 C 2.070312 -8.257812 2.535156 -8.59375 3.078125 -8.8125 C 3.628906 -9.03125 4.195312 -9.140625 4.78125 -9.140625 C 5.300781 -9.140625 5.800781 -9.0625 6.28125 -8.90625 C 6.757812 -8.757812 7.164062 -8.535156 7.5 -8.234375 C 7.851562 -7.921875 8.101562 -7.566406 8.25 -7.171875 C 8.394531 -6.773438 8.476562 -6.359375 8.5 -5.921875 C 8.53125 -5.492188 8.546875 -5.070312 8.546875 -4.65625 L 8.546875 0 L 6.390625 0 L 6.390625 -1.21875 C 6.171875 -0.820312 5.898438 -0.519531 5.578125 -0.3125 C 5.304688 -0.132812 4.992188 -0.0078125 4.640625 0.0625 C 4.296875 0.132812 3.9375 0.171875 3.5625 0.171875 Z M 4.078125 -1.515625 C 4.503906 -1.515625 4.890625 -1.597656 5.234375 -1.765625 C 5.703125 -2.003906 6.015625 -2.316406 6.171875 -2.703125 C 6.335938 -3.097656 6.425781 -3.59375 6.4375 -4.1875 L 4.3125 -3.75 C 4 -3.695312 3.742188 -3.625 3.546875 -3.53125 C 3.347656 -3.445312 3.1875 -3.347656 3.0625 -3.234375 C 2.976562 -3.148438 2.910156 -3.050781 2.859375 -2.9375 C 2.804688 -2.820312 2.78125 -2.6875 2.78125 -2.53125 C 2.78125 -2.207031 2.90625 -1.957031 3.15625 -1.78125 C 3.40625 -1.601562 3.710938 -1.515625 4.078125 -1.515625 Z M 4.078125 -1.515625 "/></g></g></g></svg>